<?xml version="1.0" encoding="utf-8"?>
<!-- Generator: Adobe Illustrator 22.0.0, SVG Export Plug-In . SVG Version: 6.00 Build 0)  -->
<svg version="1.1" id="Wapper" xmlns="http://www.w3.org/2000/svg" xmlns:xlink="http://www.w3.org/1999/xlink" x="0px" y="0px"
	 viewBox="0 0 200 200" style="enable-background:new 0 0 200 200;" xml:space="preserve">
<style type="text/css">
	.st0{fill:url(#Lemon_1_);}
	.st1{fill:url(#Shape_4_);}
	.st2{fill:url(#Shape_5_);}
	.st3{fill:url(#Shape_6_);}
</style>
<title>lemone</title>
<g id="Group-4">
  <linearGradient id="Lemon_1_" gradientUnits="userSpaceOnUse" x1="-1023.2137" y1="1306.6638" x2="-1023.8167" y2="1304.2535" gradientTransform="matrix(53.4167 0 0 -51.6667 54756.3438 67527.3125)">
		<stop  offset="0" style="stop-color:#f4ffb8"/>
		<stop  offset="0.520" style="stop-color:#a0d911"/>
		<stop  offset="1" style="stop-color:#7cb305"/>
	</linearGradient>
  	<path class="st0" d="M144.9,60.2l-1.9,1.1l0,0C128.5,43.7,100.2,40,76,53.6c-24.1,13.6-35.7,39.8-28.1,61.2l-1.6,0.9
	c-3.9,2.2-5.3,7.1-3.1,11l0.9,1.6c2.2,3.9,7.1,5.3,11,3.1l1.9-1.1c0.2-0.1,0.4-0.3,0.6-0.4c15.1,14.7,41.4,17.1,63.9,4.5
	c22.6-12.7,34.1-36.5,29.4-57c0.3-0.1,0.6-0.2,0.9-0.4l1.9-1.1c3.9-2.2,5.3-7.1,3.1-11l-0.9-1.6C153.7,59.4,148.7,58,144.9,60.2
	L144.9,60.2z"/>

  <linearGradient id="Shape_4_" gradientUnits="userSpaceOnUse" x1="-1019.6722" y1="1307.3285" x2="-1019.8033" y2="1304.7209" gradientTransform="matrix(46.4786 0 0 -58.25 47552.9844 76139.2031)">
		<stop  offset="0" style="stop-color:#fcffe6"/>
		<stop  offset="0.4147" style="stop-color:#a0d911"/>
		<stop  offset="1" style="stop-color:#7cb305"/>
	</linearGradient>
	<path id="Shape_1_" class="st1" d="M195.3,50.1c0.8-9.8-4.9-19-14.2-22.4l-45.1-16c-1.3-0.7-2.8-0.9-4.4-0.9
		c-5.9,0-10.7,4.8-10.7,10.7c0,4.7,3.1,8.7,7.3,10.1l0,0l45.7,16.3l-4.5,42.3c-0.3,1.1-0.5,2.1-0.5,3.2c0,5.9,4.8,10.7,10.7,10.7
		c5.6,0,10.1-4.3,10.7-9.6"/>

  <linearGradient id="Shape_5_" gradientUnits="userSpaceOnUse" x1="-1034.541" y1="1308.5703" x2="-1033.6996" y2="1308.9043" gradientTransform="matrix(114.0794 0 0 -125 118055.1719 163696.3594)">
		<stop  offset="0" style="stop-color:#4285EB"/>
		<stop  offset="1" style="stop-color:#2EC7FF"/>
	</linearGradient>
	<path id="Shape_3_" class="st2" d="M185.9,132.3c0.3-0.9,0.4-2,0.4-2.9c0-5.9-4.8-10.7-10.7-10.7s-10.7,4.8-10.7,10.7
		c0,0.5,0,1.2,0.1,1.7l-1.5,14l-64,33.5l-64-33.5L25.1,47.8l74.4-26.4h0.1v-0.1c5.2-0.7,9.2-5.2,9.2-10.5c0-5.9-4.8-10.7-10.7-10.7
		c-1.7,0-3.3,0.4-4.7,1.1l0,0L18,27.8C8.7,31.1,2.9,40.3,4,50.2l10.4,97.3c0.8,7.1,4.9,13.3,11.3,16.7l64,33.5
		c6.1,3.2,13.6,3.2,19.7,0l64-33.5c6.3-3.3,10.5-9.6,11.3-16.7"/>

  <linearGradient id="Shape_6_" gradientUnits="userSpaceOnUse" x1="-1034.6035" y1="1309.0842" x2="-1033.6389" y2="1307.6918" gradientTransform="matrix(114.0794 0 0 -111.4652 118055.1719 145954.6563)">
		<stop  offset="0" style="stop-color:#29CDFF"/>
		<stop  offset="0.3786" style="stop-color:#148EFF"/>
		<stop  offset="1" style="stop-color:#0A60FF"/>
	</linearGradient>
	<path id="Shape_2_" class="st3" d="M185.9,132.3c0.3-0.9,0.4-2,0.4-2.9c0-5.9-4.8-10.7-10.7-10.7s-10.7,4.8-10.7,10.7
		c0,0.5,0,1.2,0.1,1.7l-1.5,14l-64,33.5l-64-33.5L25.1,47.8c-1.1-10.9,2.3-19.6,10-26.1l-17,6.1C8.8,31.1,3,40.3,4.1,50.2l10.4,97.3
		c0.8,7.1,4.9,13.3,11.3,16.7l64,33.5c6.1,3.2,13.6,3.2,19.7,0l64-33.5c6.3-3.3,10.5-9.6,11.3-16.7"/>
</g>
</svg>
